<?xml version="1.0" encoding="utf-8" standalone="no"?>
<!DOCTYPE svg PUBLIC "-//W3C//DTD SVG 1.1//EN"
  "http://www.w3.org/Graphics/SVG/1.1/DTD/svg11.dtd">
<svg xmlns:xlink="http://www.w3.org/1999/xlink" width="504pt" height="216pt" viewBox="0 0 504 216" xmlns="http://www.w3.org/2000/svg" version="1.1">
 <metadata>
  <rdf:RDF xmlns:dc="http://purl.org/dc/elements/1.1/" xmlns:cc="http://creativecommons.org/ns#" xmlns:rdf="http://www.w3.org/1999/02/22-rdf-syntax-ns#">
   <cc:Work>
    <dc:type rdf:resource="http://purl.org/dc/dcmitype/StillImage"/>
    <dc:date>2022-11-20T00:41:52.337329</dc:date>
    <dc:format>image/svg+xml</dc:format>
    <dc:creator>
     <cc:Agent>
      <dc:title>Matplotlib v3.6.2, https://matplotlib.org/</dc:title>
     </cc:Agent>
    </dc:creator>
   </cc:Work>
  </rdf:RDF>
 </metadata>
 <defs>
  <style type="text/css">*{stroke-linejoin: round; stroke-linecap: butt}</style>
 </defs>
 <g id="figure_1">
  <g id="patch_1">
   <path d="M 0 216 
L 504 216 
L 504 0 
L 0 0 
z
" style="fill: #ffffff"/>
  </g>
  <g id="axes_1">
   <g id="patch_2">
    <path d="M 208.4575 108 
C 208.4575 97.736123 206.43574 87.572049 202.507924 78.089463 
C 198.580109 68.606877 192.822623 59.990191 185.564966 52.732534 
C 178.307309 45.474877 169.690623 39.717391 160.208037 35.789576 
C 150.725451 31.86176 140.561377 29.84 130.2975 29.84 
C 120.033623 29.84 109.869549 31.86176 100.386963 35.789576 
C 90.904377 39.717391 82.287691 45.474877 75.030034 52.732534 
C 67.772377 59.990191 62.014891 68.606877 58.087076 78.089463 
C 54.15926 87.572049 52.1375 97.736123 52.1375 108 
C 52.1375 118.263877 54.15926 128.427951 58.087076 137.910537 
C 62.014891 147.393123 67.772377 156.009809 75.030034 163.267466 
C 82.287691 170.525123 90.904377 176.282609 100.386963 180.210424 
C 109.869549 184.13824 120.033623 186.16 130.2975 186.16 
C 140.561377 186.16 150.725451 184.13824 160.208037 180.210424 
C 169.690623 176.282609 178.307309 170.525123 185.564966 163.267466 
C 192.822623 156.009809 198.580109 147.393123 202.507924 137.910537 
C 206.43574 128.427951 208.4575 118.263877 208.4575 108 
M 130.2975 108 
C 130.2975 108 130.2975 108 130.2975 108 
C 130.2975 108 130.2975 108 130.2975 108 
C 130.2975 108 130.2975 108 130.2975 108 
C 130.2975 108 130.2975 108 130.2975 108 
C 130.2975 108 130.2975 108 130.2975 108 
C 130.2975 108 130.2975 108 130.2975 108 
C 130.2975 108 130.2975 108 130.2975 108 
C 130.2975 108 130.2975 108 130.2975 108 
C 130.2975 108 130.2975 108 130.2975 108 
C 130.2975 108 130.2975 108 130.2975 108 
C 130.2975 108 130.2975 108 130.2975 108 
C 130.2975 108 130.2975 108 130.2975 108 
C 130.2975 108 130.2975 108 130.2975 108 
C 130.2975 108 130.2975 108 130.2975 108 
C 130.2975 108 130.2975 108 130.2975 108 
C 130.2975 108 130.2975 108 130.2975 108 
M 208.4575 108 
z
" style="fill: #ffffff"/>
   </g>
   <g id="matplotlib.axis_1">
    <g id="xtick_1">
     <g id="line2d_1">
      <path d="M 130.2975 108 
L 130.2975 29.84 
" clip-path="url(#p5c10dc154e)" style="fill: none; stroke: #b0b0b0; stroke-width: 0.8; stroke-linecap: square"/>
     </g>
     <g id="text_1">
      <!-- 0:00 -->
      <g transform="translate(119.069375 18.599375) scale(0.1 -0.1)">
       <defs>
        <path id="DejaVuSans-30" d="M 2034 4250 
Q 1547 4250 1301 3770 
Q 1056 3291 1056 2328 
Q 1056 1369 1301 889 
Q 1547 409 2034 409 
Q 2525 409 2770 889 
Q 3016 1369 3016 2328 
Q 3016 3291 2770 3770 
Q 2525 4250 2034 4250 
z
M 2034 4750 
Q 2819 4750 3233 4129 
Q 3647 3509 3647 2328 
Q 3647 1150 3233 529 
Q 2819 -91 2034 -91 
Q 1250 -91 836 529 
Q 422 1150 422 2328 
Q 422 3509 836 4129 
Q 1250 4750 2034 4750 
z
" transform="scale(0.015625)"/>
        <path id="DejaVuSans-3a" d="M 750 794 
L 1409 794 
L 1409 0 
L 750 0 
L 750 794 
z
M 750 3309 
L 1409 3309 
L 1409 2516 
L 750 2516 
L 750 3309 
z
" transform="scale(0.015625)"/>
       </defs>
       <use xlink:href="#DejaVuSans-30"/>
       <use xlink:href="#DejaVuSans-3a" x="63.623047"/>
       <use xlink:href="#DejaVuSans-30" x="97.314453"/>
       <use xlink:href="#DejaVuSans-30" x="160.9375"/>
      </g>
     </g>
    </g>
    <g id="xtick_2">
     <g id="line2d_2">
      <path d="M 130.2975 108 
L 185.564966 52.732534 
" clip-path="url(#p5c10dc154e)" style="fill: none; stroke: #b0b0b0; stroke-width: 0.8; stroke-linecap: square"/>
     </g>
     <g id="text_2">
      <!-- 3:00 -->
      <g transform="translate(184.236336 45.592414) scale(0.1 -0.1)">
       <defs>
        <path id="DejaVuSans-33" d="M 2597 2516 
Q 3050 2419 3304 2112 
Q 3559 1806 3559 1356 
Q 3559 666 3084 287 
Q 2609 -91 1734 -91 
Q 1441 -91 1130 -33 
Q 819 25 488 141 
L 488 750 
Q 750 597 1062 519 
Q 1375 441 1716 441 
Q 2309 441 2620 675 
Q 2931 909 2931 1356 
Q 2931 1769 2642 2001 
Q 2353 2234 1838 2234 
L 1294 2234 
L 1294 2753 
L 1863 2753 
Q 2328 2753 2575 2939 
Q 2822 3125 2822 3475 
Q 2822 3834 2567 4026 
Q 2313 4219 1838 4219 
Q 1578 4219 1281 4162 
Q 984 4106 628 3988 
L 628 4550 
Q 988 4650 1302 4700 
Q 1616 4750 1894 4750 
Q 2613 4750 3031 4423 
Q 3450 4097 3450 3541 
Q 3450 3153 3228 2886 
Q 3006 2619 2597 2516 
z
" transform="scale(0.015625)"/>
       </defs>
       <use xlink:href="#DejaVuSans-33"/>
       <use xlink:href="#DejaVuSans-3a" x="63.623047"/>
       <use xlink:href="#DejaVuSans-30" x="97.314453"/>
       <use xlink:href="#DejaVuSans-30" x="160.9375"/>
      </g>
     </g>
    </g>
    <g id="xtick_3">
     <g id="line2d_3">
      <path d="M 130.2975 108 
L 208.4575 108 
" clip-path="url(#p5c10dc154e)" style="fill: none; stroke: #b0b0b0; stroke-width: 0.8; stroke-linecap: square"/>
     </g>
     <g id="text_3">
      <!-- 6:00 -->
      <g transform="translate(211.229375 110.759375) scale(0.1 -0.1)">
       <defs>
        <path id="DejaVuSans-36" d="M 2113 2584 
Q 1688 2584 1439 2293 
Q 1191 2003 1191 1497 
Q 1191 994 1439 701 
Q 1688 409 2113 409 
Q 2538 409 2786 701 
Q 3034 994 3034 1497 
Q 3034 2003 2786 2293 
Q 2538 2584 2113 2584 
z
M 3366 4563 
L 3366 3988 
Q 3128 4100 2886 4159 
Q 2644 4219 2406 4219 
Q 1781 4219 1451 3797 
Q 1122 3375 1075 2522 
Q 1259 2794 1537 2939 
Q 1816 3084 2150 3084 
Q 2853 3084 3261 2657 
Q 3669 2231 3669 1497 
Q 3669 778 3244 343 
Q 2819 -91 2113 -91 
Q 1303 -91 875 529 
Q 447 1150 447 2328 
Q 447 3434 972 4092 
Q 1497 4750 2381 4750 
Q 2619 4750 2861 4703 
Q 3103 4656 3366 4563 
z
" transform="scale(0.015625)"/>
       </defs>
       <use xlink:href="#DejaVuSans-36"/>
       <use xlink:href="#DejaVuSans-3a" x="63.623047"/>
       <use xlink:href="#DejaVuSans-30" x="97.314453"/>
       <use xlink:href="#DejaVuSans-30" x="160.9375"/>
      </g>
     </g>
    </g>
    <g id="xtick_4">
     <g id="line2d_4">
      <path d="M 130.2975 108 
L 185.564966 163.267466 
" clip-path="url(#p5c10dc154e)" style="fill: none; stroke: #b0b0b0; stroke-width: 0.8; stroke-linecap: square"/>
     </g>
     <g id="text_4">
      <!-- 9:00 -->
      <g transform="translate(184.236336 175.926336) scale(0.1 -0.1)">
       <defs>
        <path id="DejaVuSans-39" d="M 703 97 
L 703 672 
Q 941 559 1184 500 
Q 1428 441 1663 441 
Q 2288 441 2617 861 
Q 2947 1281 2994 2138 
Q 2813 1869 2534 1725 
Q 2256 1581 1919 1581 
Q 1219 1581 811 2004 
Q 403 2428 403 3163 
Q 403 3881 828 4315 
Q 1253 4750 1959 4750 
Q 2769 4750 3195 4129 
Q 3622 3509 3622 2328 
Q 3622 1225 3098 567 
Q 2575 -91 1691 -91 
Q 1453 -91 1209 -44 
Q 966 3 703 97 
z
M 1959 2075 
Q 2384 2075 2632 2365 
Q 2881 2656 2881 3163 
Q 2881 3666 2632 3958 
Q 2384 4250 1959 4250 
Q 1534 4250 1286 3958 
Q 1038 3666 1038 3163 
Q 1038 2656 1286 2365 
Q 1534 2075 1959 2075 
z
" transform="scale(0.015625)"/>
       </defs>
       <use xlink:href="#DejaVuSans-39"/>
       <use xlink:href="#DejaVuSans-3a" x="63.623047"/>
       <use xlink:href="#DejaVuSans-30" x="97.314453"/>
       <use xlink:href="#DejaVuSans-30" x="160.9375"/>
      </g>
     </g>
    </g>
    <g id="xtick_5">
     <g id="line2d_5">
      <path d="M 130.2975 108 
L 130.2975 186.16 
" clip-path="url(#p5c10dc154e)" style="fill: none; stroke: #b0b0b0; stroke-width: 0.8; stroke-linecap: square"/>
     </g>
     <g id="text_5">
      <!-- 12:00 -->
      <g transform="translate(115.888125 202.919375) scale(0.1 -0.1)">
       <defs>
        <path id="DejaVuSans-31" d="M 794 531 
L 1825 531 
L 1825 4091 
L 703 3866 
L 703 4441 
L 1819 4666 
L 2450 4666 
L 2450 531 
L 3481 531 
L 3481 0 
L 794 0 
L 794 531 
z
" transform="scale(0.015625)"/>
        <path id="DejaVuSans-32" d="M 1228 531 
L 3431 531 
L 3431 0 
L 469 0 
L 469 531 
Q 828 903 1448 1529 
Q 2069 2156 2228 2338 
Q 2531 2678 2651 2914 
Q 2772 3150 2772 3378 
Q 2772 3750 2511 3984 
Q 2250 4219 1831 4219 
Q 1534 4219 1204 4116 
Q 875 4013 500 3803 
L 500 4441 
Q 881 4594 1212 4672 
Q 1544 4750 1819 4750 
Q 2544 4750 2975 4387 
Q 3406 4025 3406 3419 
Q 3406 3131 3298 2873 
Q 3191 2616 2906 2266 
Q 2828 2175 2409 1742 
Q 1991 1309 1228 531 
z
" transform="scale(0.015625)"/>
       </defs>
       <use xlink:href="#DejaVuSans-31"/>
       <use xlink:href="#DejaVuSans-32" x="63.623047"/>
       <use xlink:href="#DejaVuSans-3a" x="127.246094"/>
       <use xlink:href="#DejaVuSans-30" x="160.9375"/>
       <use xlink:href="#DejaVuSans-30" x="224.560547"/>
      </g>
     </g>
    </g>
    <g id="xtick_6">
     <g id="line2d_6">
      <path d="M 130.2975 108 
L 75.030034 163.267466 
" clip-path="url(#p5c10dc154e)" style="fill: none; stroke: #b0b0b0; stroke-width: 0.8; stroke-linecap: square"/>
     </g>
     <g id="text_6">
      <!-- 15:00 -->
      <g transform="translate(50.721164 175.926336) scale(0.1 -0.1)">
       <defs>
        <path id="DejaVuSans-35" d="M 691 4666 
L 3169 4666 
L 3169 4134 
L 1269 4134 
L 1269 2991 
Q 1406 3038 1543 3061 
Q 1681 3084 1819 3084 
Q 2600 3084 3056 2656 
Q 3513 2228 3513 1497 
Q 3513 744 3044 326 
Q 2575 -91 1722 -91 
Q 1428 -91 1123 -41 
Q 819 9 494 109 
L 494 744 
Q 775 591 1075 516 
Q 1375 441 1709 441 
Q 2250 441 2565 725 
Q 2881 1009 2881 1497 
Q 2881 1984 2565 2268 
Q 2250 2553 1709 2553 
Q 1456 2553 1204 2497 
Q 953 2441 691 2322 
L 691 4666 
z
" transform="scale(0.015625)"/>
       </defs>
       <use xlink:href="#DejaVuSans-31"/>
       <use xlink:href="#DejaVuSans-35" x="63.623047"/>
       <use xlink:href="#DejaVuSans-3a" x="127.246094"/>
       <use xlink:href="#DejaVuSans-30" x="160.9375"/>
       <use xlink:href="#DejaVuSans-30" x="224.560547"/>
      </g>
     </g>
    </g>
    <g id="xtick_7">
     <g id="line2d_7">
      <path d="M 130.2975 108 
L 52.1375 108 
" clip-path="url(#p5c10dc154e)" style="fill: none; stroke: #b0b0b0; stroke-width: 0.8; stroke-linecap: square"/>
     </g>
     <g id="text_7">
      <!-- 18:00 -->
      <g transform="translate(23.728125 110.759375) scale(0.1 -0.1)">
       <defs>
        <path id="DejaVuSans-38" d="M 2034 2216 
Q 1584 2216 1326 1975 
Q 1069 1734 1069 1313 
Q 1069 891 1326 650 
Q 1584 409 2034 409 
Q 2484 409 2743 651 
Q 3003 894 3003 1313 
Q 3003 1734 2745 1975 
Q 2488 2216 2034 2216 
z
M 1403 2484 
Q 997 2584 770 2862 
Q 544 3141 544 3541 
Q 544 4100 942 4425 
Q 1341 4750 2034 4750 
Q 2731 4750 3128 4425 
Q 3525 4100 3525 3541 
Q 3525 3141 3298 2862 
Q 3072 2584 2669 2484 
Q 3125 2378 3379 2068 
Q 3634 1759 3634 1313 
Q 3634 634 3220 271 
Q 2806 -91 2034 -91 
Q 1263 -91 848 271 
Q 434 634 434 1313 
Q 434 1759 690 2068 
Q 947 2378 1403 2484 
z
M 1172 3481 
Q 1172 3119 1398 2916 
Q 1625 2713 2034 2713 
Q 2441 2713 2670 2916 
Q 2900 3119 2900 3481 
Q 2900 3844 2670 4047 
Q 2441 4250 2034 4250 
Q 1625 4250 1398 4047 
Q 1172 3844 1172 3481 
z
" transform="scale(0.015625)"/>
       </defs>
       <use xlink:href="#DejaVuSans-31"/>
       <use xlink:href="#DejaVuSans-38" x="63.623047"/>
       <use xlink:href="#DejaVuSans-3a" x="127.246094"/>
       <use xlink:href="#DejaVuSans-30" x="160.9375"/>
       <use xlink:href="#DejaVuSans-30" x="224.560547"/>
      </g>
     </g>
    </g>
    <g id="xtick_8">
     <g id="line2d_8">
      <path d="M 130.2975 108 
L 75.030034 52.732534 
" clip-path="url(#p5c10dc154e)" style="fill: none; stroke: #b0b0b0; stroke-width: 0.8; stroke-linecap: square"/>
     </g>
     <g id="text_8">
      <!-- 21:00 -->
      <g transform="translate(50.721164 45.592414) scale(0.1 -0.1)">
       <use xlink:href="#DejaVuSans-32"/>
       <use xlink:href="#DejaVuSans-31" x="63.623047"/>
       <use xlink:href="#DejaVuSans-3a" x="127.246094"/>
       <use xlink:href="#DejaVuSans-30" x="160.9375"/>
       <use xlink:href="#DejaVuSans-30" x="224.560547"/>
      </g>
     </g>
    </g>
   </g>
   <g id="matplotlib.axis_2">
    <g id="ytick_1">
     <g id="line2d_9">
      <path d="M 130.2975 83.421384 
C 133.525134 83.421384 136.721384 84.057157 139.703329 85.292319 
C 142.685275 86.527482 145.394924 88.338012 147.677206 90.620294 
C 149.959488 92.902576 151.770018 95.612225 153.005181 98.594171 
C 154.240343 101.576116 154.876116 104.772366 154.876116 108 
C 154.876116 111.227634 154.240343 114.423884 153.005181 117.405829 
C 151.770018 120.387775 149.959488 123.097424 147.677206 125.379706 
C 145.394924 127.661988 142.685275 129.472518 139.703329 130.707681 
C 136.721384 131.942843 133.525134 132.578616 130.2975 132.578616 
C 127.069866 132.578616 123.873616 131.942843 120.891671 130.707681 
C 117.909725 129.472518 115.200076 127.661988 112.917794 125.379706 
C 110.635512 123.097424 108.824982 120.387775 107.589819 117.405829 
C 106.354657 114.423884 105.718884 111.227634 105.718884 108 
C 105.718884 104.772366 106.354657 101.576116 107.589819 98.594171 
C 108.824982 95.612225 110.635512 92.902576 112.917794 90.620294 
C 115.200076 88.338012 117.909725 86.527482 120.891671 85.292319 
C 123.873616 84.057157 127.069866 83.421384 130.2975 83.421384 
" clip-path="url(#p5c10dc154e)" style="fill: none; stroke: #b0b0b0; stroke-width: 0.8; stroke-linecap: square"/>
     </g>
     <g id="text_9">
      <!-- 2500 -->
      <g transform="translate(139.703329 83.212632) scale(0.1 -0.1)">
       <use xlink:href="#DejaVuSans-32"/>
       <use xlink:href="#DejaVuSans-35" x="63.623047"/>
       <use xlink:href="#DejaVuSans-30" x="127.246094"/>
       <use xlink:href="#DejaVuSans-30" x="190.869141"/>
      </g>
     </g>
    </g>
    <g id="ytick_2">
     <g id="line2d_10">
      <path d="M 130.2975 58.842767 
C 136.752769 58.842767 143.145268 60.114314 149.109159 62.584639 
C 155.073049 65.054963 160.492348 68.676023 165.056913 73.240587 
C 169.621477 77.805152 173.242537 83.224451 175.712861 89.188341 
C 178.183186 95.152232 179.454733 101.544731 179.454733 108 
C 179.454733 114.455269 178.183186 120.847768 175.712861 126.811659 
C 173.242537 132.775549 169.621477 138.194848 165.056913 142.759413 
C 160.492348 147.323977 155.073049 150.945037 149.109159 153.415361 
C 143.145268 155.885686 136.752769 157.157233 130.2975 157.157233 
C 123.842231 157.157233 117.449732 155.885686 111.485841 153.415361 
C 105.521951 150.945037 100.102652 147.323977 95.538087 142.759413 
C 90.973523 138.194848 87.352463 132.775549 84.882139 126.811659 
C 82.411814 120.847768 81.140267 114.455269 81.140267 108 
C 81.140267 101.544731 82.411814 95.152232 84.882139 89.188341 
C 87.352463 83.224451 90.973523 77.805152 95.538087 73.240587 
C 100.102652 68.676023 105.521951 65.054963 111.485841 62.584639 
C 117.449732 60.114314 123.842231 58.842767 130.2975 58.842767 
" clip-path="url(#p5c10dc154e)" style="fill: none; stroke: #b0b0b0; stroke-width: 0.8; stroke-linecap: square"/>
     </g>
     <g id="text_10">
      <!-- 5000 -->
      <g transform="translate(149.109159 60.504951) scale(0.1 -0.1)">
       <use xlink:href="#DejaVuSans-35"/>
       <use xlink:href="#DejaVuSans-30" x="63.623047"/>
       <use xlink:href="#DejaVuSans-30" x="127.246094"/>
       <use xlink:href="#DejaVuSans-30" x="190.869141"/>
      </g>
     </g>
    </g>
   </g>
   <g id="patch_3">
    <path d="M 130.2975 108 
C 130.2975 108 130.2975 108 130.2975 108 
C 130.2975 108 130.2975 108 130.2975 108 
L 131.437465 103.745591 
C 131.251766 103.695833 131.063007 103.658287 130.872401 103.633193 
C 130.681795 103.608099 130.489751 103.595512 130.2975 103.595512 
z
" clip-path="url(#p5c10dc154e)" style="fill: #1f77b4; opacity: 0.6; stroke: #000000; stroke-width: 0.5; stroke-linejoin: miter"/>
   </g>
   <g id="patch_4">
    <path d="M 130.2975 108 
C 130.2975 108 130.2975 108 130.2975 108 
C 130.2975 108 130.2975 108 130.2975 108 
L 131.79188 105.411658 
C 131.678902 105.34643 131.561774 105.288669 131.441249 105.238746 
C 131.320723 105.188823 131.197059 105.146844 131.071048 105.11308 
z
" clip-path="url(#p5c10dc154e)" style="fill: #1f77b4; opacity: 0.6; stroke: #000000; stroke-width: 0.5; stroke-linejoin: miter"/>
   </g>
   <g id="patch_5">
    <path d="M 130.2975 108 
C 130.2975 108 130.2975 108 130.2975 108 
C 130.2975 108 130.2975 108 130.2975 108 
L 131.541887 106.755613 
C 131.487571 106.701297 131.429757 106.650595 131.368816 106.603834 
C 131.307875 106.557072 131.243938 106.514351 131.177414 106.475943 
z
" clip-path="url(#p5c10dc154e)" style="fill: #1f77b4; opacity: 0.6; stroke: #000000; stroke-width: 0.5; stroke-linejoin: miter"/>
   </g>
   <g id="patch_6">
    <path d="M 130.2975 108 
C 130.2975 108 130.2975 108 130.2975 108 
C 130.2975 108 130.2975 108 130.2975 108 
L 130.638071 107.803371 
C 130.629489 107.788506 130.619942 107.774218 130.609492 107.7606 
C 130.599043 107.746982 130.587713 107.734062 130.575575 107.721925 
z
" clip-path="url(#p5c10dc154e)" style="fill: #1f77b4; opacity: 0.6; stroke: #000000; stroke-width: 0.5; stroke-linejoin: miter"/>
   </g>
   <g id="patch_7">
    <path d="M 130.2975 108 
C 130.2975 108 130.2975 108 130.2975 108 
C 130.2975 108 130.2975 108 130.2975 108 
L 130.639372 107.908396 
C 130.635374 107.893473 130.630403 107.878829 130.624491 107.864556 
C 130.618579 107.850283 130.611739 107.836413 130.604014 107.823034 
z
" clip-path="url(#p5c10dc154e)" style="fill: #1f77b4; opacity: 0.6; stroke: #000000; stroke-width: 0.5; stroke-linejoin: miter"/>
   </g>
   <g id="patch_8">
    <path d="M 130.2975 108 
C 130.2975 108 130.2975 108 130.2975 108 
C 130.2975 108 130.2975 108 130.2975 108 
L 137.730074 108 
C 137.730074 107.675577 137.708833 107.351502 137.666487 107.029854 
C 137.624141 106.708207 137.560782 106.389677 137.476815 106.076308 
z
" clip-path="url(#p5c10dc154e)" style="fill: #1f77b4; opacity: 0.6; stroke: #000000; stroke-width: 0.5; stroke-linejoin: miter"/>
   </g>
   <g id="patch_9">
    <path d="M 130.2975 108 
C 130.2975 108 130.2975 108 130.2975 108 
C 130.2975 108 130.2975 108 130.2975 108 
L 139.670494 110.511486 
C 139.780118 110.102366 139.862837 109.686507 139.918122 109.266579 
C 139.973406 108.84665 140.001138 108.423552 140.001138 108 
z
" clip-path="url(#p5c10dc154e)" style="fill: #1f77b4; opacity: 0.6; stroke: #000000; stroke-width: 0.5; stroke-linejoin: miter"/>
   </g>
   <g id="patch_10">
    <path d="M 130.2975 108 
C 130.2975 108 130.2975 108 130.2975 108 
C 130.2975 108 130.2975 108 130.2975 108 
L 146.823722 117.541419 
C 147.240194 116.820069 147.60899 116.072225 147.927743 115.302686 
C 148.246497 114.533147 148.514524 113.743563 148.730106 112.939002 
z
" clip-path="url(#p5c10dc154e)" style="fill: #1f77b4; opacity: 0.6; stroke: #000000; stroke-width: 0.5; stroke-linejoin: miter"/>
   </g>
   <g id="patch_11">
    <path d="M 130.2975 108 
C 130.2975 108 130.2975 108 130.2975 108 
C 130.2975 108 130.2975 108 130.2975 108 
L 154.531762 132.234262 
C 155.589559 131.176466 156.576964 130.050546 157.487641 128.863729 
C 158.398318 127.676912 159.230314 126.431742 159.978289 125.136211 
z
" clip-path="url(#p5c10dc154e)" style="fill: #1f77b4; opacity: 0.6; stroke: #000000; stroke-width: 0.5; stroke-linejoin: miter"/>
   </g>
   <g id="patch_12">
    <path d="M 130.2975 108 
C 130.2975 108 130.2975 108 130.2975 108 
C 130.2975 108 130.2975 108 130.2975 108 
L 151.980755 145.5565 
C 153.620052 144.610052 155.195623 143.557288 156.697359 142.404966 
C 158.199095 141.252644 159.623774 140.003234 160.962254 138.664754 
z
" clip-path="url(#p5c10dc154e)" style="fill: #1f77b4; opacity: 0.6; stroke: #000000; stroke-width: 0.5; stroke-linejoin: miter"/>
   </g>
   <g id="patch_13">
    <path d="M 130.2975 108 
C 130.2975 108 130.2975 108 130.2975 108 
C 130.2975 108 130.2975 108 130.2975 108 
L 143.055952 155.615191 
C 145.134298 155.0583 147.173955 154.36593 149.161831 153.542524 
C 151.149708 152.719119 153.081542 151.766443 154.944936 150.690612 
z
" clip-path="url(#p5c10dc154e)" style="fill: #1f77b4; opacity: 0.6; stroke: #000000; stroke-width: 0.5; stroke-linejoin: miter"/>
   </g>
   <g id="patch_14">
    <path d="M 130.2975 108 
C 130.2975 108 130.2975 108 130.2975 108 
C 130.2975 108 130.2975 108 130.2975 108 
L 130.2975 156.469031 
C 132.413115 156.469031 134.526462 156.330515 136.623978 156.054372 
C 138.721494 155.778229 140.798681 155.365051 142.842208 154.817489 
z
" clip-path="url(#p5c10dc154e)" style="fill: #1f77b4; opacity: 0.6; stroke: #000000; stroke-width: 0.5; stroke-linejoin: miter"/>
   </g>
   <g id="patch_15">
    <path d="M 130.2975 108 
C 130.2975 108 130.2975 108 130.2975 108 
C 130.2975 108 130.2975 108 130.2975 108 
L 116.032665 161.237088 
C 118.3564 161.859731 120.718411 162.329564 123.103537 162.643572 
C 125.488664 162.95758 127.891792 163.115089 130.2975 163.115089 
z
" clip-path="url(#p5c10dc154e)" style="fill: #1f77b4; opacity: 0.6; stroke: #000000; stroke-width: 0.5; stroke-linejoin: miter"/>
   </g>
   <g id="patch_16">
    <path d="M 130.2975 108 
C 130.2975 108 130.2975 108 130.2975 108 
C 130.2975 108 130.2975 108 130.2975 108 
L 103.565797 154.300668 
C 105.586766 155.467475 107.681962 156.500712 109.83794 157.393747 
C 111.993918 158.286782 114.206055 159.037701 116.460152 159.641685 
z
" clip-path="url(#p5c10dc154e)" style="fill: #1f77b4; opacity: 0.6; stroke: #000000; stroke-width: 0.5; stroke-linejoin: miter"/>
   </g>
   <g id="patch_17">
    <path d="M 130.2975 108 
C 130.2975 108 130.2975 108 130.2975 108 
C 130.2975 108 130.2975 108 130.2975 108 
L 93.987818 144.309682 
C 95.572692 145.894557 97.259634 147.373965 99.037817 148.738413 
C 100.815999 150.10286 102.681611 151.349422 104.622677 152.470097 
z
" clip-path="url(#p5c10dc154e)" style="fill: #1f77b4; opacity: 0.6; stroke: #000000; stroke-width: 0.5; stroke-linejoin: miter"/>
   </g>
   <g id="patch_18">
    <path d="M 130.2975 108 
C 130.2975 108 130.2975 108 130.2975 108 
C 130.2975 108 130.2975 108 130.2975 108 
L 74.912093 139.97678 
C 76.307841 142.394287 77.860375 144.717818 79.55973 146.93246 
C 81.259085 149.147103 83.101618 151.24811 85.075504 153.221996 
z
" clip-path="url(#p5c10dc154e)" style="fill: #1f77b4; opacity: 0.6; stroke: #000000; stroke-width: 0.5; stroke-linejoin: miter"/>
   </g>
   <g id="patch_19">
    <path d="M 130.2975 108 
C 130.2975 108 130.2975 108 130.2975 108 
C 130.2975 108 130.2975 108 130.2975 108 
L 67.791878 124.748331 
C 68.522923 127.476626 69.431814 130.154133 70.512719 132.763667 
C 71.593623 135.373201 72.844223 137.909168 74.256493 140.355291 
z
" clip-path="url(#p5c10dc154e)" style="fill: #1f77b4; opacity: 0.6; stroke: #000000; stroke-width: 0.5; stroke-linejoin: miter"/>
   </g>
   <g id="patch_20">
    <path d="M 130.2975 108 
C 130.2975 108 130.2975 108 130.2975 108 
C 130.2975 108 130.2975 108 130.2975 108 
L 60.376252 108 
C 60.376252 111.051979 60.576075 114.100686 60.974438 117.126554 
C 61.372801 120.152423 61.968851 123.148966 62.758761 126.096951 
z
" clip-path="url(#p5c10dc154e)" style="fill: #1f77b4; opacity: 0.6; stroke: #000000; stroke-width: 0.5; stroke-linejoin: miter"/>
   </g>
   <g id="patch_21">
    <path d="M 130.2975 108 
C 130.2975 108 130.2975 108 130.2975 108 
C 130.2975 108 130.2975 108 130.2975 108 
L 61.229833 89.493374 
C 60.422041 92.508095 59.812498 95.572473 59.405117 98.666841 
C 58.997736 101.761208 58.793389 104.878931 58.793389 108 
z
" clip-path="url(#p5c10dc154e)" style="fill: #1f77b4; opacity: 0.6; stroke: #000000; stroke-width: 0.5; stroke-linejoin: miter"/>
   </g>
   <g id="patch_22">
    <path d="M 130.2975 108 
C 130.2975 108 130.2975 108 130.2975 108 
C 130.2975 108 130.2975 108 130.2975 108 
L 72.570665 74.671396 
C 71.115911 77.191103 69.82769 79.803357 68.71427 82.491391 
C 67.60085 85.179425 66.664618 87.937477 65.911582 90.747845 
z
" clip-path="url(#p5c10dc154e)" style="fill: #1f77b4; opacity: 0.6; stroke: #000000; stroke-width: 0.5; stroke-linejoin: miter"/>
   </g>
   <g id="patch_23">
    <path d="M 130.2975 108 
C 130.2975 108 130.2975 108 130.2975 108 
C 130.2975 108 130.2975 108 130.2975 108 
L 75.030034 52.732534 
C 72.617675 55.144893 70.365848 57.71261 68.289003 60.419207 
C 66.212158 63.125803 64.31475 65.965476 62.608954 68.92 
z
" clip-path="url(#p5c10dc154e)" style="fill: #1f77b4; opacity: 0.6; stroke: #000000; stroke-width: 0.5; stroke-linejoin: miter"/>
   </g>
   <g id="patch_24">
    <path d="M 130.2975 108 
C 130.2975 108 130.2975 108 130.2975 108 
C 130.2975 108 130.2975 108 130.2975 108 
L 102.784197 60.345561 
C 100.704138 61.546484 98.704937 62.882307 96.799425 64.344458 
C 94.893912 65.806609 93.086175 67.391952 91.387814 69.090314 
z
" clip-path="url(#p5c10dc154e)" style="fill: #1f77b4; opacity: 0.6; stroke: #000000; stroke-width: 0.5; stroke-linejoin: miter"/>
   </g>
   <g id="patch_25">
    <path d="M 130.2975 108 
C 130.2975 108 130.2975 108 130.2975 108 
C 130.2975 108 130.2975 108 130.2975 108 
L 125.488271 90.051713 
C 124.70485 90.26163 123.936012 90.522615 123.186693 90.832993 
C 122.437374 91.143372 121.709179 91.502477 121.006783 91.908006 
z
" clip-path="url(#p5c10dc154e)" style="fill: #1f77b4; opacity: 0.6; stroke: #000000; stroke-width: 0.5; stroke-linejoin: miter"/>
   </g>
   <g id="patch_26">
    <path d="M 130.2975 108 
C 130.2975 108 130.2975 108 130.2975 108 
C 130.2975 108 130.2975 108 130.2975 108 
L 130.2975 98.01125 
C 129.861503 98.01125 129.425973 98.039796 128.993707 98.096705 
C 128.56144 98.153614 128.133362 98.238764 127.712221 98.351609 
z
" clip-path="url(#p5c10dc154e)" style="fill: #1f77b4; opacity: 0.6; stroke: #000000; stroke-width: 0.5; stroke-linejoin: miter"/>
   </g>
   <g id="patch_27">
    <path d="M 130.2975 108 
C 130.2975 108 130.2975 108 130.2975 108 
C 130.2975 108 130.2975 108 130.2975 108 
L 75.030034 52.732534 
C 72.617675 55.144893 70.365848 57.71261 68.289003 60.419207 
C 66.212158 63.125803 64.31475 65.965476 62.608954 68.92 
z
" clip-path="url(#p5c10dc154e)" style="fill: #1f77b4; stroke: #000000; stroke-width: 0.5; stroke-linejoin: miter"/>
   </g>
   <g id="patch_28">
    <path d="M 130.2975 108 
C 130.2975 108 130.2975 108 130.2975 108 
C 130.2975 108 130.2975 108 130.2975 108 
L 150.526797 32.503237 
C 147.231453 31.620253 143.881831 30.953972 140.499427 30.50867 
C 137.117023 30.063368 133.70909 29.84 130.2975 29.84 
z
" clip-path="url(#p5c10dc154e)" style="fill: #1f77b4; opacity: 0.1"/>
   </g>
   <g id="patch_29">
    <path d="M 130.2975 108 
C 130.2975 108 130.2975 108 130.2975 108 
C 130.2975 108 130.2975 108 130.2975 108 
L 169.3775 40.311454 
C 166.422976 38.605659 163.359936 37.095135 160.208037 35.789576 
C 157.056139 34.484017 153.82214 33.386222 150.526797 32.503237 
z
" clip-path="url(#p5c10dc154e)" style="fill: #1f77b4; opacity: 0.1"/>
   </g>
   <g id="patch_30">
    <path d="M 130.2975 108 
C 130.2975 108 130.2975 108 130.2975 108 
C 130.2975 108 130.2975 108 130.2975 108 
L 185.564966 52.732534 
C 183.152607 50.320175 180.58489 48.068348 177.878293 45.991503 
C 175.171697 43.914658 172.332024 42.01725 169.3775 40.311454 
z
" clip-path="url(#p5c10dc154e)" style="fill: #1f77b4; opacity: 0.1"/>
   </g>
   <g id="patch_31">
    <path d="M 130.2975 108 
C 130.2975 108 130.2975 108 130.2975 108 
C 130.2975 108 130.2975 108 130.2975 108 
L 197.986046 68.92 
C 196.28025 65.965476 194.382842 63.125803 192.305997 60.419207 
C 190.229152 57.71261 187.977325 55.144893 185.564966 52.732534 
z
" clip-path="url(#p5c10dc154e)" style="fill: #1f77b4; opacity: 0.1"/>
   </g>
   <g id="patch_32">
    <path d="M 130.2975 108 
C 130.2975 108 130.2975 108 130.2975 108 
C 130.2975 108 130.2975 108 130.2975 108 
L 205.794263 87.770703 
C 204.911278 84.47536 203.813483 81.241361 202.507924 78.089463 
C 201.202365 74.937564 199.691841 71.874524 197.986046 68.92 
z
" clip-path="url(#p5c10dc154e)" style="fill: #1f77b4; opacity: 0.1"/>
   </g>
   <g id="patch_33">
    <path d="M 130.2975 108 
C 130.2975 108 130.2975 108 130.2975 108 
C 130.2975 108 130.2975 108 130.2975 108 
L 208.4575 108 
C 208.4575 104.58841 208.234132 101.180477 207.78883 97.798073 
C 207.343528 94.415669 206.677247 91.066047 205.794263 87.770703 
z
" clip-path="url(#p5c10dc154e)" style="fill: #1f77b4; opacity: 0.1"/>
   </g>
   <g id="patch_34">
    <path d="M 130.2975 108 
C 130.2975 108 130.2975 108 130.2975 108 
C 130.2975 108 130.2975 108 130.2975 108 
L 205.794263 128.229297 
C 206.677247 124.933953 207.343528 121.584331 207.78883 118.201927 
C 208.234132 114.819523 208.4575 111.41159 208.4575 108 
z
" clip-path="url(#p5c10dc154e)" style="fill: #1f77b4; opacity: 0.1"/>
   </g>
   <g id="patch_35">
    <path d="M 130.2975 108 
C 130.2975 108 130.2975 108 130.2975 108 
C 130.2975 108 130.2975 108 130.2975 108 
L 197.986046 147.08 
C 199.691841 144.125476 201.202365 141.062436 202.507924 137.910537 
C 203.813483 134.758639 204.911278 131.52464 205.794263 128.229297 
z
" clip-path="url(#p5c10dc154e)" style="fill: #1f77b4; opacity: 0.1"/>
   </g>
   <g id="patch_36">
    <path d="M 130.2975 108 
C 130.2975 108 130.2975 108 130.2975 108 
C 130.2975 108 130.2975 108 130.2975 108 
L 185.564966 163.267466 
C 187.977325 160.855107 190.229152 158.28739 192.305997 155.580793 
C 194.382842 152.874197 196.28025 150.034524 197.986046 147.08 
z
" clip-path="url(#p5c10dc154e)" style="fill: #1f77b4; opacity: 0.1"/>
   </g>
   <g id="patch_37">
    <path d="M 130.2975 108 
C 130.2975 108 130.2975 108 130.2975 108 
C 130.2975 108 130.2975 108 130.2975 108 
L 169.3775 175.688546 
C 172.332024 173.98275 175.171697 172.085342 177.878293 170.008497 
C 180.58489 167.931652 183.152607 165.679825 185.564966 163.267466 
z
" clip-path="url(#p5c10dc154e)" style="fill: #1f77b4; opacity: 0.1"/>
   </g>
   <g id="patch_38">
    <path d="M 130.2975 108 
C 130.2975 108 130.2975 108 130.2975 108 
C 130.2975 108 130.2975 108 130.2975 108 
L 150.526797 183.496763 
C 153.82214 182.613778 157.056139 181.515983 160.208037 180.210424 
C 163.359936 178.904865 166.422976 177.394341 169.3775 175.688546 
z
" clip-path="url(#p5c10dc154e)" style="fill: #1f77b4; opacity: 0.1"/>
   </g>
   <g id="patch_39">
    <path d="M 130.2975 108 
C 130.2975 108 130.2975 108 130.2975 108 
C 130.2975 108 130.2975 108 130.2975 108 
L 130.2975 186.16 
C 133.70909 186.16 137.117023 185.936632 140.499427 185.49133 
C 143.881831 185.046028 147.231453 184.379747 150.526797 183.496763 
z
" clip-path="url(#p5c10dc154e)" style="fill: #1f77b4; opacity: 0.1"/>
   </g>
   <g id="patch_40">
    <path d="M 130.2975 108 
C 130.2975 108 130.2975 108 130.2975 108 
C 130.2975 108 130.2975 108 130.2975 108 
L 110.068203 183.496763 
C 113.363547 184.379747 116.713169 185.046028 120.095573 185.49133 
C 123.477977 185.936632 126.88591 186.16 130.2975 186.16 
z
" clip-path="url(#p5c10dc154e)" style="fill: #1f77b4; opacity: 0.1"/>
   </g>
   <g id="patch_41">
    <path d="M 130.2975 108 
C 130.2975 108 130.2975 108 130.2975 108 
C 130.2975 108 130.2975 108 130.2975 108 
L 91.2175 175.688546 
C 94.172024 177.394341 97.235064 178.904865 100.386963 180.210424 
C 103.538861 181.515983 106.77286 182.613778 110.068203 183.496763 
z
" clip-path="url(#p5c10dc154e)" style="fill: #1f77b4; opacity: 0.1"/>
   </g>
   <g id="patch_42">
    <path d="M 130.2975 108 
C 130.2975 108 130.2975 108 130.2975 108 
C 130.2975 108 130.2975 108 130.2975 108 
L 75.030034 163.267466 
C 77.442393 165.679825 80.01011 167.931652 82.716707 170.008497 
C 85.423303 172.085342 88.262976 173.98275 91.2175 175.688546 
z
" clip-path="url(#p5c10dc154e)" style="fill: #1f77b4; opacity: 0.1"/>
   </g>
   <g id="patch_43">
    <path d="M 130.2975 108 
C 130.2975 108 130.2975 108 130.2975 108 
C 130.2975 108 130.2975 108 130.2975 108 
L 62.608954 147.08 
C 64.31475 150.034524 66.212158 152.874197 68.289003 155.580793 
C 70.365848 158.28739 72.617675 160.855107 75.030034 163.267466 
z
" clip-path="url(#p5c10dc154e)" style="fill: #1f77b4; opacity: 0.1"/>
   </g>
   <g id="patch_44">
    <path d="M 130.2975 108 
C 130.2975 108 130.2975 108 130.2975 108 
C 130.2975 108 130.2975 108 130.2975 108 
L 54.800737 128.229297 
C 55.683722 131.52464 56.781517 134.758639 58.087076 137.910537 
C 59.392635 141.062436 60.903159 144.125476 62.608954 147.08 
z
" clip-path="url(#p5c10dc154e)" style="fill: #1f77b4; opacity: 0.1"/>
   </g>
   <g id="patch_45">
    <path d="M 130.2975 108 
C 130.2975 108 130.2975 108 130.2975 108 
C 130.2975 108 130.2975 108 130.2975 108 
L 52.1375 108 
C 52.1375 111.41159 52.360868 114.819523 52.80617 118.201927 
C 53.251472 121.584331 53.917753 124.933953 54.800737 128.229297 
z
" clip-path="url(#p5c10dc154e)" style="fill: #1f77b4; opacity: 0.1"/>
   </g>
   <g id="patch_46">
    <path d="M 130.2975 108 
C 130.2975 108 130.2975 108 130.2975 108 
C 130.2975 108 130.2975 108 130.2975 108 
L 54.800737 87.770703 
C 53.917753 91.066047 53.251472 94.415669 52.80617 97.798073 
C 52.360868 101.180477 52.1375 104.58841 52.1375 108 
z
" clip-path="url(#p5c10dc154e)" style="fill: #1f77b4; opacity: 0.1"/>
   </g>
   <g id="patch_47">
    <path d="M 130.2975 108 
C 130.2975 108 130.2975 108 130.2975 108 
C 130.2975 108 130.2975 108 130.2975 108 
L 62.608954 68.92 
C 60.903159 71.874524 59.392635 74.937564 58.087076 78.089463 
C 56.781517 81.241361 55.683722 84.47536 54.800737 87.770703 
z
" clip-path="url(#p5c10dc154e)" style="fill: #1f77b4; opacity: 0.1"/>
   </g>
   <g id="patch_48">
    <path d="M 130.2975 108 
C 130.2975 108 130.2975 108 130.2975 108 
C 130.2975 108 130.2975 108 130.2975 108 
L 75.030034 52.732534 
C 72.617675 55.144893 70.365848 57.71261 68.289003 60.419207 
C 66.212158 63.125803 64.31475 65.965476 62.608954 68.92 
z
" clip-path="url(#p5c10dc154e)" style="fill: #1f77b4; opacity: 0.1"/>
   </g>
   <g id="patch_49">
    <path d="M 130.2975 108 
C 130.2975 108 130.2975 108 130.2975 108 
C 130.2975 108 130.2975 108 130.2975 108 
L 91.2175 40.311454 
C 88.262976 42.01725 85.423303 43.914658 82.716707 45.991503 
C 80.01011 48.068348 77.442393 50.320175 75.030034 52.732534 
z
" clip-path="url(#p5c10dc154e)" style="fill: #1f77b4; opacity: 0.1"/>
   </g>
   <g id="patch_50">
    <path d="M 130.2975 108 
C 130.2975 108 130.2975 108 130.2975 108 
C 130.2975 108 130.2975 108 130.2975 108 
L 110.068203 32.503237 
C 106.77286 33.386222 103.538861 34.484017 100.386963 35.789576 
C 97.235064 37.095135 94.172024 38.605659 91.2175 40.311454 
z
" clip-path="url(#p5c10dc154e)" style="fill: #1f77b4; opacity: 0.1"/>
   </g>
   <g id="patch_51">
    <path d="M 130.2975 108 
C 130.2975 108 130.2975 108 130.2975 108 
C 130.2975 108 130.2975 108 130.2975 108 
L 130.2975 29.84 
C 126.88591 29.84 123.477977 30.063368 120.095573 30.50867 
C 116.713169 30.953972 113.363547 31.620253 110.068203 32.503237 
z
" clip-path="url(#p5c10dc154e)" style="fill: #1f77b4; opacity: 0.1"/>
   </g>
   <g id="patch_52">
    <path d="M 130.2975 29.84 
C 120.033623 29.84 109.869549 31.86176 100.386963 35.789576 
C 90.904377 39.717391 82.287691 45.474877 75.030034 52.732534 
C 67.772377 59.990191 62.014891 68.606877 58.087076 78.089463 
C 54.15926 87.572049 52.1375 97.736123 52.1375 108 
C 52.1375 118.263877 54.15926 128.427951 58.087076 137.910537 
C 62.014891 147.393123 67.772377 156.009809 75.030034 163.267466 
C 82.287691 170.525123 90.904377 176.282609 100.386963 180.210424 
C 109.869549 184.13824 120.033623 186.16 130.2975 186.16 
C 140.561377 186.16 150.725451 184.13824 160.208037 180.210424 
C 169.690623 176.282609 178.307309 170.525123 185.564966 163.267466 
C 192.822623 156.009809 198.580109 147.393123 202.507924 137.910537 
C 206.43574 128.427951 208.4575 118.263877 208.4575 108 
C 208.4575 97.736123 206.43574 87.572049 202.507924 78.089463 
C 198.580109 68.606877 192.822623 59.990191 185.564966 52.732534 
C 178.307309 45.474877 169.690623 39.717391 160.208037 35.789576 
C 150.725451 31.86176 140.561377 29.84 130.2975 29.84 
" style="fill: none; stroke: #000000; stroke-width: 0.8; stroke-linejoin: miter; stroke-linecap: square"/>
   </g>
  </g>
  <g id="axes_2">
   <g id="patch_53">
    <path d="M 455.0575 108 
C 455.0575 97.736123 453.03574 87.572049 449.107924 78.089463 
C 445.180109 68.606877 439.422623 59.990191 432.164966 52.732534 
C 424.907309 45.474877 416.290623 39.717391 406.808037 35.789576 
C 397.325451 31.86176 387.161377 29.84 376.8975 29.84 
C 366.633623 29.84 356.469549 31.86176 346.986963 35.789576 
C 337.504377 39.717391 328.887691 45.474877 321.630034 52.732534 
C 314.372377 59.990191 308.614891 68.606877 304.687076 78.089463 
C 300.75926 87.572049 298.7375 97.736123 298.7375 108 
C 298.7375 118.263877 300.75926 128.427951 304.687076 137.910537 
C 308.614891 147.393123 314.372377 156.009809 321.630034 163.267466 
C 328.887691 170.525123 337.504377 176.282609 346.986963 180.210424 
C 356.469549 184.13824 366.633623 186.16 376.8975 186.16 
C 387.161377 186.16 397.325451 184.13824 406.808037 180.210424 
C 416.290623 176.282609 424.907309 170.525123 432.164966 163.267466 
C 439.422623 156.009809 445.180109 147.393123 449.107924 137.910537 
C 453.03574 128.427951 455.0575 118.263877 455.0575 108 
M 376.8975 108 
C 376.8975 108 376.8975 108 376.8975 108 
C 376.8975 108 376.8975 108 376.8975 108 
C 376.8975 108 376.8975 108 376.8975 108 
C 376.8975 108 376.8975 108 376.8975 108 
C 376.8975 108 376.8975 108 376.8975 108 
C 376.8975 108 376.8975 108 376.8975 108 
C 376.8975 108 376.8975 108 376.8975 108 
C 376.8975 108 376.8975 108 376.8975 108 
C 376.8975 108 376.8975 108 376.8975 108 
C 376.8975 108 376.8975 108 376.8975 108 
C 376.8975 108 376.8975 108 376.8975 108 
C 376.8975 108 376.8975 108 376.8975 108 
C 376.8975 108 376.8975 108 376.8975 108 
C 376.8975 108 376.8975 108 376.8975 108 
C 376.8975 108 376.8975 108 376.8975 108 
C 376.8975 108 376.8975 108 376.8975 108 
M 455.0575 108 
z
" style="fill: #ffffff"/>
   </g>
   <g id="matplotlib.axis_3">
    <g id="xtick_9">
     <g id="line2d_11">
      <path d="M 376.8975 108 
L 376.8975 29.84 
" clip-path="url(#p2a570cd016)" style="fill: none; stroke: #b0b0b0; stroke-width: 0.8; stroke-linecap: square"/>
     </g>
     <g id="text_11">
      <!-- 0:00 -->
      <g transform="translate(365.669375 18.599375) scale(0.1 -0.1)">
       <use xlink:href="#DejaVuSans-30"/>
       <use xlink:href="#DejaVuSans-3a" x="63.623047"/>
       <use xlink:href="#DejaVuSans-30" x="97.314453"/>
       <use xlink:href="#DejaVuSans-30" x="160.9375"/>
      </g>
     </g>
    </g>
    <g id="xtick_10">
     <g id="line2d_12">
      <path d="M 376.8975 108 
L 432.164966 52.732534 
" clip-path="url(#p2a570cd016)" style="fill: none; stroke: #b0b0b0; stroke-width: 0.8; stroke-linecap: square"/>
     </g>
     <g id="text_12">
      <!-- 3:00 -->
      <g transform="translate(430.836336 45.592414) scale(0.1 -0.1)">
       <use xlink:href="#DejaVuSans-33"/>
       <use xlink:href="#DejaVuSans-3a" x="63.623047"/>
       <use xlink:href="#DejaVuSans-30" x="97.314453"/>
       <use xlink:href="#DejaVuSans-30" x="160.9375"/>
      </g>
     </g>
    </g>
    <g id="xtick_11">
     <g id="line2d_13">
      <path d="M 376.8975 108 
L 455.0575 108 
" clip-path="url(#p2a570cd016)" style="fill: none; stroke: #b0b0b0; stroke-width: 0.8; stroke-linecap: square"/>
     </g>
     <g id="text_13">
      <!-- 6:00 -->
      <g transform="translate(457.829375 110.759375) scale(0.1 -0.1)">
       <use xlink:href="#DejaVuSans-36"/>
       <use xlink:href="#DejaVuSans-3a" x="63.623047"/>
       <use xlink:href="#DejaVuSans-30" x="97.314453"/>
       <use xlink:href="#DejaVuSans-30" x="160.9375"/>
      </g>
     </g>
    </g>
    <g id="xtick_12">
     <g id="line2d_14">
      <path d="M 376.8975 108 
L 432.164966 163.267466 
" clip-path="url(#p2a570cd016)" style="fill: none; stroke: #b0b0b0; stroke-width: 0.8; stroke-linecap: square"/>
     </g>
     <g id="text_14">
      <!-- 9:00 -->
      <g transform="translate(430.836336 175.926336) scale(0.1 -0.1)">
       <use xlink:href="#DejaVuSans-39"/>
       <use xlink:href="#DejaVuSans-3a" x="63.623047"/>
       <use xlink:href="#DejaVuSans-30" x="97.314453"/>
       <use xlink:href="#DejaVuSans-30" x="160.9375"/>
      </g>
     </g>
    </g>
    <g id="xtick_13">
     <g id="line2d_15">
      <path d="M 376.8975 108 
L 376.8975 186.16 
" clip-path="url(#p2a570cd016)" style="fill: none; stroke: #b0b0b0; stroke-width: 0.8; stroke-linecap: square"/>
     </g>
     <g id="text_15">
      <!-- 12:00 -->
      <g transform="translate(362.488125 202.919375) scale(0.1 -0.1)">
       <use xlink:href="#DejaVuSans-31"/>
       <use xlink:href="#DejaVuSans-32" x="63.623047"/>
       <use xlink:href="#DejaVuSans-3a" x="127.246094"/>
       <use xlink:href="#DejaVuSans-30" x="160.9375"/>
       <use xlink:href="#DejaVuSans-30" x="224.560547"/>
      </g>
     </g>
    </g>
    <g id="xtick_14">
     <g id="line2d_16">
      <path d="M 376.8975 108 
L 321.630034 163.267466 
" clip-path="url(#p2a570cd016)" style="fill: none; stroke: #b0b0b0; stroke-width: 0.8; stroke-linecap: square"/>
     </g>
     <g id="text_16">
      <!-- 15:00 -->
      <g transform="translate(297.321164 175.926336) scale(0.1 -0.1)">
       <use xlink:href="#DejaVuSans-31"/>
       <use xlink:href="#DejaVuSans-35" x="63.623047"/>
       <use xlink:href="#DejaVuSans-3a" x="127.246094"/>
       <use xlink:href="#DejaVuSans-30" x="160.9375"/>
       <use xlink:href="#DejaVuSans-30" x="224.560547"/>
      </g>
     </g>
    </g>
    <g id="xtick_15">
     <g id="line2d_17">
      <path d="M 376.8975 108 
L 298.7375 108 
" clip-path="url(#p2a570cd016)" style="fill: none; stroke: #b0b0b0; stroke-width: 0.8; stroke-linecap: square"/>
     </g>
     <g id="text_17">
      <!-- 18:00 -->
      <g transform="translate(270.328125 110.759375) scale(0.1 -0.1)">
       <use xlink:href="#DejaVuSans-31"/>
       <use xlink:href="#DejaVuSans-38" x="63.623047"/>
       <use xlink:href="#DejaVuSans-3a" x="127.246094"/>
       <use xlink:href="#DejaVuSans-30" x="160.9375"/>
       <use xlink:href="#DejaVuSans-30" x="224.560547"/>
      </g>
     </g>
    </g>
    <g id="xtick_16">
     <g id="line2d_18">
      <path d="M 376.8975 108 
L 321.630034 52.732534 
" clip-path="url(#p2a570cd016)" style="fill: none; stroke: #b0b0b0; stroke-width: 0.8; stroke-linecap: square"/>
     </g>
     <g id="text_18">
      <!-- 21:00 -->
      <g transform="translate(297.321164 45.592414) scale(0.1 -0.1)">
       <use xlink:href="#DejaVuSans-32"/>
       <use xlink:href="#DejaVuSans-31" x="63.623047"/>
       <use xlink:href="#DejaVuSans-3a" x="127.246094"/>
       <use xlink:href="#DejaVuSans-30" x="160.9375"/>
       <use xlink:href="#DejaVuSans-30" x="224.560547"/>
      </g>
     </g>
    </g>
   </g>
   <g id="matplotlib.axis_4">
    <g id="ytick_3">
     <g id="line2d_19">
      <path d="M 376.8975 68.92 
C 382.029439 68.92 387.111476 69.93088 391.852769 71.894788 
C 396.594062 73.858696 400.902404 76.737438 404.531233 80.366267 
C 408.160062 83.995096 411.038804 88.303438 413.002712 93.044731 
C 414.96662 97.786024 415.9775 102.868061 415.9775 108 
C 415.9775 113.131939 414.96662 118.213976 413.002712 122.955269 
C 411.038804 127.696562 408.160062 132.004904 404.531233 135.633733 
C 400.902404 139.262562 396.594062 142.141304 391.852769 144.105212 
C 387.111476 146.06912 382.029439 147.08 376.8975 147.08 
C 371.765561 147.08 366.683524 146.06912 361.942231 144.105212 
C 357.200938 142.141304 352.892596 139.262562 349.263767 135.633733 
C 345.634938 132.004904 342.756196 127.696562 340.792288 122.955269 
C 338.82838 118.213976 337.8175 113.131939 337.8175 108 
C 337.8175 102.868061 338.82838 97.786024 340.792288 93.044731 
C 342.756196 88.303438 345.634938 83.995096 349.263767 80.366267 
C 352.892596 76.737438 357.200938 73.858696 361.942231 71.894788 
C 366.683524 69.93088 371.765561 68.92 376.8975 68.92 
" clip-path="url(#p2a570cd016)" style="fill: none; stroke: #b0b0b0; stroke-width: 0.8; stroke-linecap: square"/>
     </g>
     <g id="text_19">
      <!-- 3975 -->
      <g transform="translate(391.852769 69.8151) scale(0.1 -0.1)">
       <defs>
        <path id="DejaVuSans-37" d="M 525 4666 
L 3525 4666 
L 3525 4397 
L 1831 0 
L 1172 0 
L 2766 4134 
L 525 4134 
L 525 4666 
z
" transform="scale(0.015625)"/>
       </defs>
       <use xlink:href="#DejaVuSans-33"/>
       <use xlink:href="#DejaVuSans-39" x="63.623047"/>
       <use xlink:href="#DejaVuSans-37" x="127.246094"/>
       <use xlink:href="#DejaVuSans-35" x="190.869141"/>
      </g>
     </g>
    </g>
    <g id="ytick_4">
     <g id="line2d_20">
      <path d="M 376.8975 29.84 
C 387.161377 29.84 397.325451 31.86176 406.808037 35.789576 
C 416.290623 39.717391 424.907309 45.474877 432.164966 52.732534 
C 439.422623 59.990191 445.180109 68.606877 449.107924 78.089463 
C 453.03574 87.572049 455.0575 97.736123 455.0575 108 
C 455.0575 118.263877 453.03574 128.427951 449.107924 137.910537 
C 445.180109 147.393123 439.422623 156.009809 432.164966 163.267466 
C 424.907309 170.525123 416.290623 176.282609 406.808037 180.210424 
C 397.325451 184.13824 387.161377 186.16 376.8975 186.16 
C 366.633623 186.16 356.469549 184.13824 346.986963 180.210424 
C 337.504377 176.282609 328.887691 170.525123 321.630034 163.267466 
C 314.372377 156.009809 308.614891 147.393123 304.687076 137.910537 
C 300.75926 128.427951 298.7375 118.263877 298.7375 108 
C 298.7375 97.736123 300.75926 87.572049 304.687076 78.089463 
C 308.614891 68.606877 314.372377 59.990191 321.630034 52.732534 
C 328.887691 45.474877 337.504377 39.717391 346.986963 35.789576 
C 356.469549 31.86176 366.633623 29.84 376.8975 29.84 
" clip-path="url(#p2a570cd016)" style="fill: none; stroke: #b0b0b0; stroke-width: 0.8; stroke-linecap: square"/>
     </g>
     <g id="text_20">
      <!-- 7950 -->
      <g transform="translate(406.808037 33.709888) scale(0.1 -0.1)">
       <use xlink:href="#DejaVuSans-37"/>
       <use xlink:href="#DejaVuSans-39" x="63.623047"/>
       <use xlink:href="#DejaVuSans-35" x="127.246094"/>
       <use xlink:href="#DejaVuSans-30" x="190.869141"/>
      </g>
     </g>
    </g>
   </g>
   <g id="patch_54">
    <path d="M 376.8975 108 
C 376.8975 108 376.8975 108 376.8975 108 
C 376.8975 108 376.8975 108 376.8975 108 
L 378.037465 103.745591 
C 377.851766 103.695833 377.663007 103.658287 377.472401 103.633193 
C 377.281795 103.608099 377.089751 103.595512 376.8975 103.595512 
z
" clip-path="url(#p2a570cd016)" style="fill: #ff7f0e; stroke: #000000; stroke-width: 0.5; stroke-linejoin: miter"/>
   </g>
   <g id="patch_55">
    <path d="M 376.8975 108 
C 376.8975 108 376.8975 108 376.8975 108 
C 376.8975 108 376.8975 108 376.8975 108 
L 378.39188 105.411658 
C 378.278902 105.34643 378.161774 105.288669 378.041249 105.238746 
C 377.920723 105.188823 377.797059 105.146844 377.671048 105.11308 
z
" clip-path="url(#p2a570cd016)" style="fill: #ff7f0e; stroke: #000000; stroke-width: 0.5; stroke-linejoin: miter"/>
   </g>
   <g id="patch_56">
    <path d="M 376.8975 108 
C 376.8975 108 376.8975 108 376.8975 108 
C 376.8975 108 376.8975 108 376.8975 108 
L 378.141887 106.755613 
C 378.087571 106.701297 378.029757 106.650595 377.968816 106.603834 
C 377.907875 106.557072 377.843938 106.514351 377.777414 106.475943 
z
" clip-path="url(#p2a570cd016)" style="fill: #ff7f0e; stroke: #000000; stroke-width: 0.5; stroke-linejoin: miter"/>
   </g>
   <g id="patch_57">
    <path d="M 376.8975 108 
C 376.8975 108 376.8975 108 376.8975 108 
C 376.8975 108 376.8975 108 376.8975 108 
L 377.238071 107.803371 
C 377.229489 107.788506 377.219942 107.774218 377.209492 107.7606 
C 377.199043 107.746982 377.187713 107.734062 377.175575 107.721925 
z
" clip-path="url(#p2a570cd016)" style="fill: #ff7f0e; stroke: #000000; stroke-width: 0.5; stroke-linejoin: miter"/>
   </g>
   <g id="patch_58">
    <path d="M 376.8975 108 
C 376.8975 108 376.8975 108 376.8975 108 
C 376.8975 108 376.8975 108 376.8975 108 
L 377.239372 107.908396 
C 377.235374 107.893473 377.230403 107.878829 377.224491 107.864556 
C 377.218579 107.850283 377.211739 107.836413 377.204014 107.823034 
z
" clip-path="url(#p2a570cd016)" style="fill: #ff7f0e; stroke: #000000; stroke-width: 0.5; stroke-linejoin: miter"/>
   </g>
   <g id="patch_59">
    <path d="M 376.8975 108 
C 376.8975 108 376.8975 108 376.8975 108 
C 376.8975 108 376.8975 108 376.8975 108 
L 384.330074 108 
C 384.330074 107.675577 384.308833 107.351502 384.266487 107.029854 
C 384.224141 106.708207 384.160782 106.389677 384.076815 106.076308 
z
" clip-path="url(#p2a570cd016)" style="fill: #ff7f0e; stroke: #000000; stroke-width: 0.5; stroke-linejoin: miter"/>
   </g>
   <g id="patch_60">
    <path d="M 376.8975 108 
C 376.8975 108 376.8975 108 376.8975 108 
C 376.8975 108 376.8975 108 376.8975 108 
L 386.270494 110.511486 
C 386.380118 110.102366 386.462837 109.686507 386.518122 109.266579 
C 386.573406 108.84665 386.601138 108.423552 386.601138 108 
z
" clip-path="url(#p2a570cd016)" style="fill: #ff7f0e; stroke: #000000; stroke-width: 0.5; stroke-linejoin: miter"/>
   </g>
   <g id="patch_61">
    <path d="M 376.8975 108 
C 376.8975 108 376.8975 108 376.8975 108 
C 376.8975 108 376.8975 108 376.8975 108 
L 393.423722 117.541419 
C 393.840194 116.820069 394.20899 116.072225 394.527743 115.302686 
C 394.846497 114.533147 395.114524 113.743563 395.330106 112.939002 
z
" clip-path="url(#p2a570cd016)" style="fill: #ff7f0e; stroke: #000000; stroke-width: 0.5; stroke-linejoin: miter"/>
   </g>
   <g id="patch_62">
    <path d="M 376.8975 108 
C 376.8975 108 376.8975 108 376.8975 108 
C 376.8975 108 376.8975 108 376.8975 108 
L 401.131762 132.234262 
C 402.189559 131.176466 403.176964 130.050546 404.087641 128.863729 
C 404.998318 127.676912 405.830314 126.431742 406.578289 125.136211 
z
" clip-path="url(#p2a570cd016)" style="fill: #ff7f0e; stroke: #000000; stroke-width: 0.5; stroke-linejoin: miter"/>
   </g>
   <g id="patch_63">
    <path d="M 376.8975 108 
C 376.8975 108 376.8975 108 376.8975 108 
C 376.8975 108 376.8975 108 376.8975 108 
L 398.580755 145.5565 
C 400.220052 144.610052 401.795623 143.557288 403.297359 142.404966 
C 404.799095 141.252644 406.223774 140.003234 407.562254 138.664754 
z
" clip-path="url(#p2a570cd016)" style="fill: #ff7f0e; stroke: #000000; stroke-width: 0.5; stroke-linejoin: miter"/>
   </g>
   <g id="patch_64">
    <path d="M 376.8975 108 
C 376.8975 108 376.8975 108 376.8975 108 
C 376.8975 108 376.8975 108 376.8975 108 
L 389.655952 155.615191 
C 391.734298 155.0583 393.773955 154.36593 395.761831 153.542524 
C 397.749708 152.719119 399.681542 151.766443 401.544936 150.690612 
z
" clip-path="url(#p2a570cd016)" style="fill: #ff7f0e; stroke: #000000; stroke-width: 0.5; stroke-linejoin: miter"/>
   </g>
   <g id="patch_65">
    <path d="M 376.8975 108 
C 376.8975 108 376.8975 108 376.8975 108 
C 376.8975 108 376.8975 108 376.8975 108 
L 376.8975 156.469031 
C 379.013115 156.469031 381.126462 156.330515 383.223978 156.054372 
C 385.321494 155.778229 387.398681 155.365051 389.442208 154.817489 
z
" clip-path="url(#p2a570cd016)" style="fill: #ff7f0e; stroke: #000000; stroke-width: 0.5; stroke-linejoin: miter"/>
   </g>
   <g id="patch_66">
    <path d="M 376.8975 108 
C 376.8975 108 376.8975 108 376.8975 108 
C 376.8975 108 376.8975 108 376.8975 108 
L 362.632665 161.237088 
C 364.9564 161.859731 367.318411 162.329564 369.703537 162.643572 
C 372.088664 162.95758 374.491792 163.115089 376.8975 163.115089 
z
" clip-path="url(#p2a570cd016)" style="fill: #ff7f0e; stroke: #000000; stroke-width: 0.5; stroke-linejoin: miter"/>
   </g>
   <g id="patch_67">
    <path d="M 376.8975 108 
C 376.8975 108 376.8975 108 376.8975 108 
C 376.8975 108 376.8975 108 376.8975 108 
L 350.165797 154.300668 
C 352.186766 155.467475 354.281962 156.500712 356.43794 157.393747 
C 358.593918 158.286782 360.806055 159.037701 363.060152 159.641685 
z
" clip-path="url(#p2a570cd016)" style="fill: #ff7f0e; stroke: #000000; stroke-width: 0.5; stroke-linejoin: miter"/>
   </g>
   <g id="patch_68">
    <path d="M 376.8975 108 
C 376.8975 108 376.8975 108 376.8975 108 
C 376.8975 108 376.8975 108 376.8975 108 
L 340.587818 144.309682 
C 342.172692 145.894557 343.859634 147.373965 345.637817 148.738413 
C 347.415999 150.10286 349.281611 151.349422 351.222677 152.470097 
z
" clip-path="url(#p2a570cd016)" style="fill: #ff7f0e; stroke: #000000; stroke-width: 0.5; stroke-linejoin: miter"/>
   </g>
   <g id="patch_69">
    <path d="M 376.8975 108 
C 376.8975 108 376.8975 108 376.8975 108 
C 376.8975 108 376.8975 108 376.8975 108 
L 321.512093 139.97678 
C 322.907841 142.394287 324.460375 144.717818 326.15973 146.93246 
C 327.859085 149.147103 329.701618 151.24811 331.675504 153.221996 
z
" clip-path="url(#p2a570cd016)" style="fill: #ff7f0e; stroke: #000000; stroke-width: 0.5; stroke-linejoin: miter"/>
   </g>
   <g id="patch_70">
    <path d="M 376.8975 108 
C 376.8975 108 376.8975 108 376.8975 108 
C 376.8975 108 376.8975 108 376.8975 108 
L 314.391878 124.748331 
C 315.122923 127.476626 316.031814 130.154133 317.112719 132.763667 
C 318.193623 135.373201 319.444223 137.909168 320.856493 140.355291 
z
" clip-path="url(#p2a570cd016)" style="fill: #ff7f0e; stroke: #000000; stroke-width: 0.5; stroke-linejoin: miter"/>
   </g>
   <g id="patch_71">
    <path d="M 376.8975 108 
C 376.8975 108 376.8975 108 376.8975 108 
C 376.8975 108 376.8975 108 376.8975 108 
L 306.976252 108 
C 306.976252 111.051979 307.176075 114.100686 307.574438 117.126554 
C 307.972801 120.152423 308.568851 123.148966 309.358761 126.096951 
z
" clip-path="url(#p2a570cd016)" style="fill: #ff7f0e; stroke: #000000; stroke-width: 0.5; stroke-linejoin: miter"/>
   </g>
   <g id="patch_72">
    <path d="M 376.8975 108 
C 376.8975 108 376.8975 108 376.8975 108 
C 376.8975 108 376.8975 108 376.8975 108 
L 307.829833 89.493374 
C 307.022041 92.508095 306.412498 95.572473 306.005117 98.666841 
C 305.597736 101.761208 305.393389 104.878931 305.393389 108 
z
" clip-path="url(#p2a570cd016)" style="fill: #ff7f0e; stroke: #000000; stroke-width: 0.5; stroke-linejoin: miter"/>
   </g>
   <g id="patch_73">
    <path d="M 376.8975 108 
C 376.8975 108 376.8975 108 376.8975 108 
C 376.8975 108 376.8975 108 376.8975 108 
L 319.170665 74.671396 
C 317.715911 77.191103 316.42769 79.803357 315.31427 82.491391 
C 314.20085 85.179425 313.264618 87.937477 312.511582 90.747845 
z
" clip-path="url(#p2a570cd016)" style="fill: #ff7f0e; stroke: #000000; stroke-width: 0.5; stroke-linejoin: miter"/>
   </g>
   <g id="patch_74">
    <path d="M 376.8975 108 
C 376.8975 108 376.8975 108 376.8975 108 
C 376.8975 108 376.8975 108 376.8975 108 
L 321.630034 52.732534 
C 319.217675 55.144893 316.965848 57.71261 314.889003 60.419207 
C 312.812158 63.125803 310.91475 65.965476 309.208954 68.92 
z
" clip-path="url(#p2a570cd016)" style="fill: #ff7f0e; stroke: #000000; stroke-width: 0.5; stroke-linejoin: miter"/>
   </g>
   <g id="patch_75">
    <path d="M 376.8975 108 
C 376.8975 108 376.8975 108 376.8975 108 
C 376.8975 108 376.8975 108 376.8975 108 
L 349.384197 60.345561 
C 347.304138 61.546484 345.304937 62.882307 343.399425 64.344458 
C 341.493912 65.806609 339.686175 67.391952 337.987814 69.090314 
z
" clip-path="url(#p2a570cd016)" style="fill: #ff7f0e; stroke: #000000; stroke-width: 0.5; stroke-linejoin: miter"/>
   </g>
   <g id="patch_76">
    <path d="M 376.8975 108 
C 376.8975 108 376.8975 108 376.8975 108 
C 376.8975 108 376.8975 108 376.8975 108 
L 372.088271 90.051713 
C 371.30485 90.26163 370.536012 90.522615 369.786693 90.832993 
C 369.037374 91.143372 368.309179 91.502477 367.606783 91.908006 
z
" clip-path="url(#p2a570cd016)" style="fill: #ff7f0e; stroke: #000000; stroke-width: 0.5; stroke-linejoin: miter"/>
   </g>
   <g id="patch_77">
    <path d="M 376.8975 108 
C 376.8975 108 376.8975 108 376.8975 108 
C 376.8975 108 376.8975 108 376.8975 108 
L 376.8975 98.01125 
C 376.461503 98.01125 376.025973 98.039796 375.593707 98.096705 
C 375.16144 98.153614 374.733362 98.238764 374.312221 98.351609 
z
" clip-path="url(#p2a570cd016)" style="fill: #ff7f0e; stroke: #000000; stroke-width: 0.5; stroke-linejoin: miter"/>
   </g>
   <g id="patch_78">
    <path d="M 376.8975 108 
C 376.8975 108 376.8975 108 376.8975 108 
C 376.8975 108 376.8975 108 376.8975 108 
L 397.126797 32.503237 
C 393.831453 31.620253 390.481831 30.953972 387.099427 30.50867 
C 383.717023 30.063368 380.30909 29.84 376.8975 29.84 
z
" clip-path="url(#p2a570cd016)" style="fill: #ff7f0e; opacity: 0.1"/>
   </g>
   <g id="patch_79">
    <path d="M 376.8975 108 
C 376.8975 108 376.8975 108 376.8975 108 
C 376.8975 108 376.8975 108 376.8975 108 
L 415.9775 40.311454 
C 413.022976 38.605659 409.959936 37.095135 406.808037 35.789576 
C 403.656139 34.484017 400.42214 33.386222 397.126797 32.503237 
z
" clip-path="url(#p2a570cd016)" style="fill: #ff7f0e; opacity: 0.1"/>
   </g>
   <g id="patch_80">
    <path d="M 376.8975 108 
C 376.8975 108 376.8975 108 376.8975 108 
C 376.8975 108 376.8975 108 376.8975 108 
L 432.164966 52.732534 
C 429.752607 50.320175 427.18489 48.068348 424.478293 45.991503 
C 421.771697 43.914658 418.932024 42.01725 415.9775 40.311454 
z
" clip-path="url(#p2a570cd016)" style="fill: #ff7f0e; opacity: 0.1"/>
   </g>
   <g id="patch_81">
    <path d="M 376.8975 108 
C 376.8975 108 376.8975 108 376.8975 108 
C 376.8975 108 376.8975 108 376.8975 108 
L 444.586046 68.92 
C 442.88025 65.965476 440.982842 63.125803 438.905997 60.419207 
C 436.829152 57.71261 434.577325 55.144893 432.164966 52.732534 
z
" clip-path="url(#p2a570cd016)" style="fill: #ff7f0e; opacity: 0.1"/>
   </g>
   <g id="patch_82">
    <path d="M 376.8975 108 
C 376.8975 108 376.8975 108 376.8975 108 
C 376.8975 108 376.8975 108 376.8975 108 
L 452.394263 87.770703 
C 451.511278 84.47536 450.413483 81.241361 449.107924 78.089463 
C 447.802365 74.937564 446.291841 71.874524 444.586046 68.92 
z
" clip-path="url(#p2a570cd016)" style="fill: #ff7f0e; opacity: 0.1"/>
   </g>
   <g id="patch_83">
    <path d="M 376.8975 108 
C 376.8975 108 376.8975 108 376.8975 108 
C 376.8975 108 376.8975 108 376.8975 108 
L 455.0575 108 
C 455.0575 104.58841 454.834132 101.180477 454.38883 97.798073 
C 453.943528 94.415669 453.277247 91.066047 452.394263 87.770703 
z
" clip-path="url(#p2a570cd016)" style="fill: #ff7f0e; opacity: 0.1"/>
   </g>
   <g id="patch_84">
    <path d="M 376.8975 108 
C 376.8975 108 376.8975 108 376.8975 108 
C 376.8975 108 376.8975 108 376.8975 108 
L 452.394263 128.229297 
C 453.277247 124.933953 453.943528 121.584331 454.38883 118.201927 
C 454.834132 114.819523 455.0575 111.41159 455.0575 108 
z
" clip-path="url(#p2a570cd016)" style="fill: #ff7f0e; opacity: 0.1"/>
   </g>
   <g id="patch_85">
    <path d="M 376.8975 108 
C 376.8975 108 376.8975 108 376.8975 108 
C 376.8975 108 376.8975 108 376.8975 108 
L 444.586046 147.08 
C 446.291841 144.125476 447.802365 141.062436 449.107924 137.910537 
C 450.413483 134.758639 451.511278 131.52464 452.394263 128.229297 
z
" clip-path="url(#p2a570cd016)" style="fill: #ff7f0e; opacity: 0.1"/>
   </g>
   <g id="patch_86">
    <path d="M 376.8975 108 
C 376.8975 108 376.8975 108 376.8975 108 
C 376.8975 108 376.8975 108 376.8975 108 
L 432.164966 163.267466 
C 434.577325 160.855107 436.829152 158.28739 438.905997 155.580793 
C 440.982842 152.874197 442.88025 150.034524 444.586046 147.08 
z
" clip-path="url(#p2a570cd016)" style="fill: #ff7f0e; opacity: 0.1"/>
   </g>
   <g id="patch_87">
    <path d="M 376.8975 108 
C 376.8975 108 376.8975 108 376.8975 108 
C 376.8975 108 376.8975 108 376.8975 108 
L 415.9775 175.688546 
C 418.932024 173.98275 421.771697 172.085342 424.478293 170.008497 
C 427.18489 167.931652 429.752607 165.679825 432.164966 163.267466 
z
" clip-path="url(#p2a570cd016)" style="fill: #ff7f0e; opacity: 0.1"/>
   </g>
   <g id="patch_88">
    <path d="M 376.8975 108 
C 376.8975 108 376.8975 108 376.8975 108 
C 376.8975 108 376.8975 108 376.8975 108 
L 397.126797 183.496763 
C 400.42214 182.613778 403.656139 181.515983 406.808037 180.210424 
C 409.959936 178.904865 413.022976 177.394341 415.9775 175.688546 
z
" clip-path="url(#p2a570cd016)" style="fill: #ff7f0e; opacity: 0.1"/>
   </g>
   <g id="patch_89">
    <path d="M 376.8975 108 
C 376.8975 108 376.8975 108 376.8975 108 
C 376.8975 108 376.8975 108 376.8975 108 
L 376.8975 186.16 
C 380.30909 186.16 383.717023 185.936632 387.099427 185.49133 
C 390.481831 185.046028 393.831453 184.379747 397.126797 183.496763 
z
" clip-path="url(#p2a570cd016)" style="fill: #ff7f0e; opacity: 0.1"/>
   </g>
   <g id="patch_90">
    <path d="M 376.8975 108 
C 376.8975 108 376.8975 108 376.8975 108 
C 376.8975 108 376.8975 108 376.8975 108 
L 356.668203 183.496763 
C 359.963547 184.379747 363.313169 185.046028 366.695573 185.49133 
C 370.077977 185.936632 373.48591 186.16 376.8975 186.16 
z
" clip-path="url(#p2a570cd016)" style="fill: #ff7f0e; opacity: 0.1"/>
   </g>
   <g id="patch_91">
    <path d="M 376.8975 108 
C 376.8975 108 376.8975 108 376.8975 108 
C 376.8975 108 376.8975 108 376.8975 108 
L 337.8175 175.688546 
C 340.772024 177.394341 343.835064 178.904865 346.986963 180.210424 
C 350.138861 181.515983 353.37286 182.613778 356.668203 183.496763 
z
" clip-path="url(#p2a570cd016)" style="fill: #ff7f0e; opacity: 0.1"/>
   </g>
   <g id="patch_92">
    <path d="M 376.8975 108 
C 376.8975 108 376.8975 108 376.8975 108 
C 376.8975 108 376.8975 108 376.8975 108 
L 321.630034 163.267466 
C 324.042393 165.679825 326.61011 167.931652 329.316707 170.008497 
C 332.023303 172.085342 334.862976 173.98275 337.8175 175.688546 
z
" clip-path="url(#p2a570cd016)" style="fill: #ff7f0e; opacity: 0.1"/>
   </g>
   <g id="patch_93">
    <path d="M 376.8975 108 
C 376.8975 108 376.8975 108 376.8975 108 
C 376.8975 108 376.8975 108 376.8975 108 
L 309.208954 147.08 
C 310.91475 150.034524 312.812158 152.874197 314.889003 155.580793 
C 316.965848 158.28739 319.217675 160.855107 321.630034 163.267466 
z
" clip-path="url(#p2a570cd016)" style="fill: #ff7f0e; opacity: 0.1"/>
   </g>
   <g id="patch_94">
    <path d="M 376.8975 108 
C 376.8975 108 376.8975 108 376.8975 108 
C 376.8975 108 376.8975 108 376.8975 108 
L 301.400737 128.229297 
C 302.283722 131.52464 303.381517 134.758639 304.687076 137.910537 
C 305.992635 141.062436 307.503159 144.125476 309.208954 147.08 
z
" clip-path="url(#p2a570cd016)" style="fill: #ff7f0e; opacity: 0.1"/>
   </g>
   <g id="patch_95">
    <path d="M 376.8975 108 
C 376.8975 108 376.8975 108 376.8975 108 
C 376.8975 108 376.8975 108 376.8975 108 
L 298.7375 108 
C 298.7375 111.41159 298.960868 114.819523 299.40617 118.201927 
C 299.851472 121.584331 300.517753 124.933953 301.400737 128.229297 
z
" clip-path="url(#p2a570cd016)" style="fill: #ff7f0e; opacity: 0.1"/>
   </g>
   <g id="patch_96">
    <path d="M 376.8975 108 
C 376.8975 108 376.8975 108 376.8975 108 
C 376.8975 108 376.8975 108 376.8975 108 
L 301.400737 87.770703 
C 300.517753 91.066047 299.851472 94.415669 299.40617 97.798073 
C 298.960868 101.180477 298.7375 104.58841 298.7375 108 
z
" clip-path="url(#p2a570cd016)" style="fill: #ff7f0e; opacity: 0.1"/>
   </g>
   <g id="patch_97">
    <path d="M 376.8975 108 
C 376.8975 108 376.8975 108 376.8975 108 
C 376.8975 108 376.8975 108 376.8975 108 
L 309.208954 68.92 
C 307.503159 71.874524 305.992635 74.937564 304.687076 78.089463 
C 303.381517 81.241361 302.283722 84.47536 301.400737 87.770703 
z
" clip-path="url(#p2a570cd016)" style="fill: #ff7f0e; opacity: 0.1"/>
   </g>
   <g id="patch_98">
    <path d="M 376.8975 108 
C 376.8975 108 376.8975 108 376.8975 108 
C 376.8975 108 376.8975 108 376.8975 108 
L 321.630034 52.732534 
C 319.217675 55.144893 316.965848 57.71261 314.889003 60.419207 
C 312.812158 63.125803 310.91475 65.965476 309.208954 68.92 
z
" clip-path="url(#p2a570cd016)" style="fill: #ff7f0e; opacity: 0.1"/>
   </g>
   <g id="patch_99">
    <path d="M 376.8975 108 
C 376.8975 108 376.8975 108 376.8975 108 
C 376.8975 108 376.8975 108 376.8975 108 
L 337.8175 40.311454 
C 334.862976 42.01725 332.023303 43.914658 329.316707 45.991503 
C 326.61011 48.068348 324.042393 50.320175 321.630034 52.732534 
z
" clip-path="url(#p2a570cd016)" style="fill: #ff7f0e; opacity: 0.1"/>
   </g>
   <g id="patch_100">
    <path d="M 376.8975 108 
C 376.8975 108 376.8975 108 376.8975 108 
C 376.8975 108 376.8975 108 376.8975 108 
L 356.668203 32.503237 
C 353.37286 33.386222 350.138861 34.484017 346.986963 35.789576 
C 343.835064 37.095135 340.772024 38.605659 337.8175 40.311454 
z
" clip-path="url(#p2a570cd016)" style="fill: #ff7f0e; opacity: 0.1"/>
   </g>
   <g id="patch_101">
    <path d="M 376.8975 108 
C 376.8975 108 376.8975 108 376.8975 108 
C 376.8975 108 376.8975 108 376.8975 108 
L 376.8975 29.84 
C 373.48591 29.84 370.077977 30.063368 366.695573 30.50867 
C 363.313169 30.953972 359.963547 31.620253 356.668203 32.503237 
z
" clip-path="url(#p2a570cd016)" style="fill: #ff7f0e; opacity: 0.1"/>
   </g>
   <g id="patch_102">
    <path d="M 376.8975 29.84 
C 366.633623 29.84 356.469549 31.86176 346.986963 35.789576 
C 337.504377 39.717391 328.887691 45.474877 321.630034 52.732534 
C 314.372377 59.990191 308.614891 68.606877 304.687076 78.089463 
C 300.75926 87.572049 298.7375 97.736123 298.7375 108 
C 298.7375 118.263877 300.75926 128.427951 304.687076 137.910537 
C 308.614891 147.393123 314.372377 156.009809 321.630034 163.267466 
C 328.887691 170.525123 337.504377 176.282609 346.986963 180.210424 
C 356.469549 184.13824 366.633623 186.16 376.8975 186.16 
C 387.161377 186.16 397.325451 184.13824 406.808037 180.210424 
C 416.290623 176.282609 424.907309 170.525123 432.164966 163.267466 
C 439.422623 156.009809 445.180109 147.393123 449.107924 137.910537 
C 453.03574 128.427951 455.0575 118.263877 455.0575 108 
C 455.0575 97.736123 453.03574 87.572049 449.107924 78.089463 
C 445.180109 68.606877 439.422623 59.990191 432.164966 52.732534 
C 424.907309 45.474877 416.290623 39.717391 406.808037 35.789576 
C 397.325451 31.86176 387.161377 29.84 376.8975 29.84 
" style="fill: none; stroke: #000000; stroke-width: 0.8; stroke-linejoin: miter; stroke-linecap: square"/>
   </g>
  </g>
 </g>
 <defs>
  <clipPath id="p5c10dc154e">
   <path d="M 208.4575 108 
C 208.4575 97.736123 206.43574 87.572049 202.507924 78.089463 
C 198.580109 68.606877 192.822623 59.990191 185.564966 52.732534 
C 178.307309 45.474877 169.690623 39.717391 160.208037 35.789576 
C 150.725451 31.86176 140.561377 29.84 130.2975 29.84 
C 120.033623 29.84 109.869549 31.86176 100.386963 35.789576 
C 90.904377 39.717391 82.287691 45.474877 75.030034 52.732534 
C 67.772377 59.990191 62.014891 68.606877 58.087076 78.089463 
C 54.15926 87.572049 52.1375 97.736123 52.1375 108 
C 52.1375 118.263877 54.15926 128.427951 58.087076 137.910537 
C 62.014891 147.393123 67.772377 156.009809 75.030034 163.267466 
C 82.287691 170.525123 90.904377 176.282609 100.386963 180.210424 
C 109.869549 184.13824 120.033623 186.16 130.2975 186.16 
C 140.561377 186.16 150.725451 184.13824 160.208037 180.210424 
C 169.690623 176.282609 178.307309 170.525123 185.564966 163.267466 
C 192.822623 156.009809 198.580109 147.393123 202.507924 137.910537 
C 206.43574 128.427951 208.4575 118.263877 208.4575 108 
M 130.2975 108 
C 130.2975 108 130.2975 108 130.2975 108 
C 130.2975 108 130.2975 108 130.2975 108 
C 130.2975 108 130.2975 108 130.2975 108 
C 130.2975 108 130.2975 108 130.2975 108 
C 130.2975 108 130.2975 108 130.2975 108 
C 130.2975 108 130.2975 108 130.2975 108 
C 130.2975 108 130.2975 108 130.2975 108 
C 130.2975 108 130.2975 108 130.2975 108 
C 130.2975 108 130.2975 108 130.2975 108 
C 130.2975 108 130.2975 108 130.2975 108 
C 130.2975 108 130.2975 108 130.2975 108 
C 130.2975 108 130.2975 108 130.2975 108 
C 130.2975 108 130.2975 108 130.2975 108 
C 130.2975 108 130.2975 108 130.2975 108 
C 130.2975 108 130.2975 108 130.2975 108 
C 130.2975 108 130.2975 108 130.2975 108 
M 208.4575 108 
z
"/>
  </clipPath>
  <clipPath id="p2a570cd016">
   <path d="M 455.0575 108 
C 455.0575 97.736123 453.03574 87.572049 449.107924 78.089463 
C 445.180109 68.606877 439.422623 59.990191 432.164966 52.732534 
C 424.907309 45.474877 416.290623 39.717391 406.808037 35.789576 
C 397.325451 31.86176 387.161377 29.84 376.8975 29.84 
C 366.633623 29.84 356.469549 31.86176 346.986963 35.789576 
C 337.504377 39.717391 328.887691 45.474877 321.630034 52.732534 
C 314.372377 59.990191 308.614891 68.606877 304.687076 78.089463 
C 300.75926 87.572049 298.7375 97.736123 298.7375 108 
C 298.7375 118.263877 300.75926 128.427951 304.687076 137.910537 
C 308.614891 147.393123 314.372377 156.009809 321.630034 163.267466 
C 328.887691 170.525123 337.504377 176.282609 346.986963 180.210424 
C 356.469549 184.13824 366.633623 186.16 376.8975 186.16 
C 387.161377 186.16 397.325451 184.13824 406.808037 180.210424 
C 416.290623 176.282609 424.907309 170.525123 432.164966 163.267466 
C 439.422623 156.009809 445.180109 147.393123 449.107924 137.910537 
C 453.03574 128.427951 455.0575 118.263877 455.0575 108 
M 376.8975 108 
C 376.8975 108 376.8975 108 376.8975 108 
C 376.8975 108 376.8975 108 376.8975 108 
C 376.8975 108 376.8975 108 376.8975 108 
C 376.8975 108 376.8975 108 376.8975 108 
C 376.8975 108 376.8975 108 376.8975 108 
C 376.8975 108 376.8975 108 376.8975 108 
C 376.8975 108 376.8975 108 376.8975 108 
C 376.8975 108 376.8975 108 376.8975 108 
C 376.8975 108 376.8975 108 376.8975 108 
C 376.8975 108 376.8975 108 376.8975 108 
C 376.8975 108 376.8975 108 376.8975 108 
C 376.8975 108 376.8975 108 376.8975 108 
C 376.8975 108 376.8975 108 376.8975 108 
C 376.8975 108 376.8975 108 376.8975 108 
C 376.8975 108 376.8975 108 376.8975 108 
C 376.8975 108 376.8975 108 376.8975 108 
M 455.0575 108 
z
"/>
  </clipPath>
 </defs>
</svg>
